<mxfile host="65bd71144e">
    <diagram id="architecture" name="Legal MVP Flow">
        <mxGraphModel dx="2246" dy="550" grid="1" gridSize="10" guides="1" tooltips="1" connect="1" arrows="1" fold="1" page="1" pageScale="1" pageWidth="1440" pageHeight="900" math="0" shadow="0">
            <root>
                <mxCell id="0"/>
                <mxCell id="1" parent="0"/>
                <mxCell id="browser" value="Browser Demo UI&#10;(Upload PDF @ /)" style="rounded=1;whiteSpace=wrap;html=1;fillColor=#dae8fc;strokeColor=#6c8ebf;fontSize=14;fontStyle=1" parent="1" vertex="1">
                    <mxGeometry x="-10" y="220" width="200" height="90" as="geometry"/>
                </mxCell>
                <mxCell id="fastapi" value="FastAPI App&#10;(uvicorn app.main:app)" style="swimlane;rounded=1;whiteSpace=wrap;html=1;fillColor=#f8cecc;strokeColor=#b85450;fontSize=14;fontStyle=1;horizontal=0;startSize=36" parent="1" vertex="1">
                    <mxGeometry x="240" y="120" width="290" height="320" as="geometry"/>
                </mxCell>
                <mxCell id="lifespan" value="Lifespan Startup&#10;- load QA pipeline&#10;- load NER pipeline" style="rounded=1;whiteSpace=wrap;html=1;fillColor=#f4f1de;strokeColor=#c09553;fontSize=13" parent="fastapi" vertex="1">
                    <mxGeometry x="50" y="30" width="210" height="80" as="geometry"/>
                </mxCell>
                <mxCell id="templates" value="Jinja2 Templates&#10;demo.html &amp; demo_guide.html" style="rounded=1;whiteSpace=wrap;html=1;fillColor=#d5e8d4;strokeColor=#82b366;fontSize=13" parent="fastapi" vertex="1">
                    <mxGeometry x="50" y="125" width="210" height="70" as="geometry"/>
                </mxCell>
                <mxCell id="router" value="/extract Router&#10;- hash bytes&#10;- call services&#10;- append audit log" style="rounded=1;whiteSpace=wrap;html=1;fillColor=#e1d5e7;strokeColor=#9673a6;fontSize=13" parent="fastapi" vertex="1">
                    <mxGeometry x="50" y="210" width="210" height="90" as="geometry"/>
                </mxCell>
                <mxCell id="edge_templates_router" style="orthogonalEdgeStyle;rounded=1;strokeColor=#9673a6;endArrow=block;html=1" parent="fastapi" source="templates" target="router" edge="1">
                    <mxGeometry relative="1" as="geometry"/>
                </mxCell>
                <mxCell id="services" value="Service Layer" style="swimlane;rounded=1;whiteSpace=wrap;html=1;fillColor=#dae8fc;strokeColor=#6c8ebf;fontSize=14;fontStyle=1;horizontal=0;startSize=36" parent="1" vertex="1">
                    <mxGeometry x="570" y="120" width="260" height="320" as="geometry"/>
                </mxCell>
                <mxCell id="pdf" value="pdf_text.extract_pages&#10;• pdfplumber&#10;• strip control chars" style="rounded=1;whiteSpace=wrap;html=1;fillColor=#fff2cc;strokeColor=#d6b656;fontSize=13" parent="services" vertex="1">
                    <mxGeometry x="45" y="20" width="210" height="90" as="geometry"/>
                </mxCell>
                <mxCell id="qa" value="qa_extract.extract_fields&#10;• ask QA per page&#10;• validate dates" style="rounded=1;whiteSpace=wrap;html=1;fillColor=#f4c7c3;strokeColor=#b85450;fontSize=13" parent="services" vertex="1">
                    <mxGeometry x="45" y="120" width="210" height="90" as="geometry"/>
                </mxCell>
                <mxCell id="core" value="Core Utilities" style="swimlane;rounded=1;whiteSpace=wrap;html=1;fillColor=#e1d5e7;strokeColor=#9673a6;fontSize=14;fontStyle=1;horizontal=0;startSize=36" parent="1" vertex="1">
                    <mxGeometry x="870" y="120" width="260" height="320" as="geometry"/>
                </mxCell>
                <mxCell id="config" value="config.py&#10;Constants &amp; regex" style="rounded=1;whiteSpace=wrap;html=1;fillColor=#fff2cc;strokeColor=#d6b656;fontSize=13" parent="core" vertex="1">
                    <mxGeometry x="40" y="20" width="210" height="70" as="geometry"/>
                </mxCell>
                <mxCell id="utils" value="utils.py&#10;sha256, UTC timestamps, snippets" style="rounded=1;whiteSpace=wrap;html=1;fillColor=#d5e8d4;strokeColor=#82b366;fontSize=13" parent="core" vertex="1">
                    <mxGeometry x="40" y="110" width="210" height="70" as="geometry"/>
                </mxCell>
                <mxCell id="logging" value="logging.py&#10;append audit JSONL" style="rounded=1;whiteSpace=wrap;html=1;fillColor=#f4f1de;strokeColor=#c09553;fontSize=13" parent="core" vertex="1">
                    <mxGeometry x="40" y="190" width="210" height="60" as="geometry"/>
                </mxCell>
                <mxCell id="model" value="model.py&#10;get_qa / get_ner (cached)" style="rounded=1;whiteSpace=wrap;html=1;fillColor=#f4c7c3;strokeColor=#b85450;fontSize=13" parent="core" vertex="1">
                    <mxGeometry x="40" y="260" width="210" height="60" as="geometry"/>
                </mxCell>
                <mxCell id="external" value="External Outputs" style="swimlane;rounded=1;whiteSpace=wrap;html=1;fillColor=#fff2cc;strokeColor=#d6b656;fontSize=14;fontStyle=1;horizontal=0;startSize=36" parent="1" vertex="1">
                    <mxGeometry x="1150" y="160" width="230" height="240" as="geometry"/>
                </mxCell>
                <mxCell id="audit" value="audit.log&#10;JSONL hash + confidences" style="rounded=1;whiteSpace=wrap;html=1;fillColor=#d5e8d4;strokeColor=#82b366;fontSize=13" parent="external" vertex="1">
                    <mxGeometry x="40" y="20" width="180" height="70" as="geometry"/>
                </mxCell>
                <mxCell id="hugging" value="Hugging Face cache&#10;(QA &amp; NER models)" style="rounded=1;whiteSpace=wrap;html=1;fillColor=#dae8fc;strokeColor=#6c8ebf;fontSize=13" parent="external" vertex="1">
                    <mxGeometry x="40" y="130" width="180" height="70" as="geometry"/>
                </mxCell>
                <mxCell id="tests" value="pytest suite&#10;tests/test_extract.py" style="rounded=1;whiteSpace=wrap;html=1;fillColor=#fff2cc;strokeColor=#d6b656;fontSize=13" parent="1" vertex="1">
                    <mxGeometry x="360" y="470" width="200" height="70" as="geometry"/>
                </mxCell>
                <mxCell id="eval" value="eval/evaluate.py&#10;golden PDFs" style="rounded=1;whiteSpace=wrap;html=1;fillColor=#dae8fc;strokeColor=#6c8ebf;fontSize=13" parent="1" vertex="1">
                    <mxGeometry x="600" y="470" width="200" height="70" as="geometry"/>
                </mxCell>
                <mxCell id="edge_browser_templates" style="orthogonalEdgeStyle;rounded=1;strokeColor=#6c8ebf;endArrow=block;html=1" parent="1" source="browser" target="templates" edge="1">
                    <mxGeometry relative="1" as="geometry"/>
                </mxCell>
                <mxCell id="edge_router_pdf" style="orthogonalEdgeStyle;rounded=1;strokeColor=#6c8ebf;endArrow=block;html=1" parent="1" source="router" target="pdf" edge="1">
                    <mxGeometry relative="1" as="geometry"/>
                </mxCell>
                <mxCell id="edge_router_qa" style="orthogonalEdgeStyle;rounded=1;strokeColor=#b85450;endArrow=block;html=1" parent="1" source="router" target="qa" edge="1">
                    <mxGeometry relative="1" as="geometry"/>
                </mxCell>
                <mxCell id="edge_router_utils" style="orthogonalEdgeStyle;rounded=1;strokeColor=#82b366;endArrow=block;html=1" parent="1" source="router" target="utils" edge="1">
                    <mxGeometry relative="1" as="geometry"/>
                </mxCell>
                <mxCell id="edge_router_logging" style="orthogonalEdgeStyle;rounded=1;strokeColor=#c09553;endArrow=block;html=1;startArrow=none;" parent="1" source="ner" target="logging" edge="1">
                    <mxGeometry relative="1" as="geometry"/>
                </mxCell>
                <mxCell id="edge_qa_config" style="orthogonalEdgeStyle;rounded=1;strokeColor=#d6b656;endArrow=block;html=1" parent="1" source="qa" target="config" edge="1">
                    <mxGeometry relative="1" as="geometry"/>
                </mxCell>
                <mxCell id="edge_qa_model" style="orthogonalEdgeStyle;rounded=1;strokeColor=#b85450;endArrow=block;html=1" parent="1" source="qa" target="model" edge="1">
                    <mxGeometry relative="1" as="geometry"/>
                </mxCell>
                <mxCell id="edge_model_hugging" style="orthogonalEdgeStyle;rounded=1;strokeColor=#6c8ebf;endArrow=block;html=1" parent="1" source="model" target="hugging" edge="1">
                    <mxGeometry relative="1" as="geometry"/>
                </mxCell>
                <mxCell id="edge_logging_audit" style="orthogonalEdgeStyle;rounded=1;strokeColor=#82b366;endArrow=block;html=1" parent="1" source="logging" target="audit" edge="1">
                    <mxGeometry relative="1" as="geometry"/>
                </mxCell>
                <mxCell id="edge_tests_fastapi" style="orthogonalEdgeStyle;rounded=1;strokeColor=#d6b656;endArrow=block;html=1" parent="1" source="tests" target="fastapi" edge="1">
                    <mxGeometry relative="1" as="geometry"/>
                </mxCell>
                <mxCell id="edge_eval_services" style="orthogonalEdgeStyle;rounded=1;strokeColor=#6c8ebf;endArrow=block;html=1" parent="1" source="eval" target="services" edge="1">
                    <mxGeometry relative="1" as="geometry"/>
                </mxCell>
                <mxCell id="edge_lifespan_model" style="orthogonalEdgeStyle;rounded=1;strokeColor=#b85450;endArrow=block;html=1" parent="1" source="lifespan" target="model" edge="1">
                    <mxGeometry relative="1" as="geometry"/>
                </mxCell>
                <mxCell id="2" value="" style="orthogonalEdgeStyle;rounded=1;strokeColor=#c09553;endArrow=none;html=1" edge="1" parent="1" source="router" target="ner">
                    <mxGeometry relative="1" as="geometry">
                        <mxPoint x="500" y="374.125" as="sourcePoint"/>
                        <mxPoint x="890" y="370.875" as="targetPoint"/>
                    </mxGeometry>
                </mxCell>
                <mxCell id="ner" value="ner_fallback.find_parties&#10;• HuggingFace NER&#10;• cue phrase heuristics" style="rounded=1;whiteSpace=wrap;html=1;fillColor=#d5e8d4;strokeColor=#82b366;fontSize=13" parent="1" vertex="1">
                    <mxGeometry x="615" y="350" width="210" height="70" as="geometry"/>
                </mxCell>
                <mxCell id="edge_qa_ner" style="orthogonalEdgeStyle;rounded=1;strokeColor=#82b366;endArrow=block;html=1" parent="1" source="qa" target="ner" edge="1">
                    <mxGeometry relative="1" as="geometry"/>
                </mxCell>
                <mxCell id="health" value="/health" style="rounded=1;whiteSpace=wrap;html=1;fillColor=#fff2cc;strokeColor=#d6b656;fontSize=13" parent="1" vertex="1">
                    <mxGeometry x="250" y="550" width="210" height="50" as="geometry"/>
                </mxCell>
            </root>
        </mxGraphModel>
    </diagram>
</mxfile>